<svg xmlns="http://www.w3.org/2000/svg" viewBox="0 0 256 256">
  <rect width="256" height="256" rx="58" fill="#000"/>
  <path d="M62 86V60h32M162 60h32v26M194 162v34h-32M94 196H62v-34" fill="none" stroke="#000" stroke-width="13" stroke-linecap="round" stroke-linejoin="round"/>
  <path d="M130 66c34 0 62 27 62 61s-28 61-62 61-62-27-62-61 28-61 62-61Z" fill="none" stroke="#000" stroke-width="18" stroke-linecap="round"/>
  <path d="M168 168l28 28" fill="none" stroke="#000" stroke-width="18" stroke-linecap="round"/>
  <path d="M102 102h18v18h-18zm34 0h18v18h-18zm-34 34h18v18h-18zm34 34h18v18h-18zm34-34h18v18h-18z" fill="#000"/>
</svg>
